<svg id="logo_samaritano" data-name="logo samaritano" xmlns="http://www.w3.org/2000/svg" xmlns:xlink="http://www.w3.org/1999/xlink" width="165" height="41.25" viewBox="0 0 165 41.25">
  <defs>
    <clipPath id="clip-path">
      <path id="Caminho_36" data-name="Caminho 36" d="M27.862,36.942v.712c0,.987.08,3.573,4.738,3.573h.866l1.328-3.573H30.08a2.521,2.521,0,0,1-2.143-.737A.044.044,0,0,0,27.9,36.9a.041.041,0,0,0-.043.042" fill="none"/>
    </clipPath>
    <linearGradient id="linear-gradient" x1="-4.019" y1="1.005" x2="-3.977" y2="1.005" gradientUnits="objectBoundingBox">
      <stop offset="0" stop-color="#5c2d90"/>
      <stop offset="0.13" stop-color="#74298e"/>
      <stop offset="0.28" stop-color="#88268e"/>
      <stop offset="0.451" stop-color="#97248d"/>
      <stop offset="0.658" stop-color="#9f238d"/>
      <stop offset="1" stop-color="#a2238d"/>
    </linearGradient>
    <clipPath id="clip-path-2">
      <path id="Caminho_37" data-name="Caminho 37" d="M26.968,31.583V32.3c0,.987.08,3.573,4.739,3.573h6.932L39.968,32.3H29.187a2.52,2.52,0,0,1-2.143-.737.044.044,0,0,0-.032-.016.041.041,0,0,0-.044.042" fill="none"/>
    </clipPath>
    <linearGradient id="linear-gradient-2" x1="-2.075" y1="2.244" x2="-2.052" y2="2.244" xlink:href="#linear-gradient"/>
    <clipPath id="clip-path-3">
      <path id="Caminho_38" data-name="Caminho 38" d="M13.513,16.219l-1.329,3.573h10.78a2.52,2.52,0,0,1,2.143.737.046.046,0,0,0,.032.016.041.041,0,0,0,.044-.042v-.712c0-.987-.08-3.573-4.738-3.573Z" fill="none"/>
    </clipPath>
    <linearGradient id="linear-gradient-3" x1="-0.937" y1="5.785" x2="-0.915" y2="5.785" gradientUnits="objectBoundingBox">
      <stop offset="0" stop-color="#b2d235"/>
      <stop offset="0.253" stop-color="#afd135"/>
      <stop offset="0.406" stop-color="#a7cf36"/>
      <stop offset="0.532" stop-color="#98cc38"/>
      <stop offset="0.644" stop-color="#84c83b"/>
      <stop offset="0.746" stop-color="#6ac33e"/>
      <stop offset="0.841" stop-color="#49bc43"/>
      <stop offset="0.93" stop-color="#24b448"/>
      <stop offset="1" stop-color="#00ad4d"/>
    </linearGradient>
    <clipPath id="clip-path-4">
      <path id="Caminho_39" data-name="Caminho 39" d="M3.938,10.86,2.609,14.433H22.072a2.521,2.521,0,0,1,2.143.737.044.044,0,0,0,.033.017.041.041,0,0,0,.043-.042v-.713c0-.987-.08-3.573-4.739-3.573Z" fill="none"/>
    </clipPath>
    <linearGradient id="linear-gradient-4" x1="-0.12" y1="7.023" x2="-0.107" y2="7.023" xlink:href="#linear-gradient-3"/>
    <clipPath id="clip-path-5">
      <path id="Caminho_40" data-name="Caminho 40" d="M1.329,5.5,0,9.074H21.18a2.519,2.519,0,0,1,2.143.737.046.046,0,0,0,.033.017.042.042,0,0,0,.043-.042V9.074c0-.988-.08-3.573-4.738-3.573Z" fill="none"/>
    </clipPath>
    <linearGradient id="linear-gradient-5" x1="0" y1="8.262" x2="0.012" y2="8.262" xlink:href="#linear-gradient-3"/>
    <clipPath id="clip-path-6">
      <path id="Caminho_41" data-name="Caminho 41" d="M8.236.143,6.907,3.715h13.38a2.52,2.52,0,0,1,2.143.737.046.046,0,0,0,.033.017.042.042,0,0,0,.043-.042V3.715c0-.987-.08-3.573-4.738-3.573Z" fill="none"/>
    </clipPath>
    <linearGradient id="linear-gradient-6" x1="-0.443" y1="9.501" x2="-0.424" y2="9.501" xlink:href="#linear-gradient-3"/>
    <clipPath id="clip-path-7">
      <path id="Caminho_42" data-name="Caminho 42" d="M25.184,20.866v.712c0,.987.08,3.573,4.738,3.573h8.717l1.328-3.573H27.4a2.521,2.521,0,0,1-2.143-.737.046.046,0,0,0-.033-.017.042.042,0,0,0-.043.042" fill="none"/>
    </clipPath>
    <linearGradient id="linear-gradient-7" x1="-1.703" y1="4.721" x2="-1.684" y2="4.721" xlink:href="#linear-gradient"/>
    <clipPath id="clip-path-8">
      <path id="Caminho_43" data-name="Caminho 43" d="M26.076,26.225v.712c0,.988.08,3.573,4.739,3.573h13l1.328-3.573H28.295a2.521,2.521,0,0,1-2.143-.737.045.045,0,0,0-.032-.017.042.042,0,0,0-.044.042" fill="none"/>
    </clipPath>
    <linearGradient id="linear-gradient-8" x1="-1.368" y1="3.482" x2="-1.352" y2="3.482" xlink:href="#linear-gradient"/>
    <clipPath id="clip-path-9">
      <rect id="Retângulo_22" data-name="Retângulo 22" width="165" height="41.25" fill="none"/>
    </clipPath>
  </defs>
  <g id="Grupo_24" data-name="Grupo 24">
    <g id="Grupo_23" data-name="Grupo 23" clip-path="url(#clip-path)">
      <rect id="Retângulo_13" data-name="Retângulo 13" width="6.933" height="4.327" transform="translate(27.862 36.9)" fill="url(#linear-gradient)"/>
    </g>
  </g>
  <g id="Grupo_26" data-name="Grupo 26">
    <g id="Grupo_25" data-name="Grupo 25" clip-path="url(#clip-path-2)">
      <rect id="Retângulo_14" data-name="Retângulo 14" width="12.999" height="4.326" transform="translate(26.968 31.542)" fill="url(#linear-gradient-2)"/>
    </g>
  </g>
  <g id="Grupo_28" data-name="Grupo 28">
    <g id="Grupo_27" data-name="Grupo 27" clip-path="url(#clip-path-3)">
      <rect id="Retângulo_15" data-name="Retângulo 15" width="12.999" height="4.327" transform="translate(12.185 16.219)" fill="url(#linear-gradient-3)"/>
    </g>
  </g>
  <g id="Grupo_30" data-name="Grupo 30">
    <g id="Grupo_29" data-name="Grupo 29" clip-path="url(#clip-path-4)">
      <rect id="Retângulo_16" data-name="Retângulo 16" width="21.682" height="4.327" transform="translate(2.609 10.86)" fill="url(#linear-gradient-4)"/>
    </g>
  </g>
  <g id="Grupo_32" data-name="Grupo 32">
    <g id="Grupo_31" data-name="Grupo 31" clip-path="url(#clip-path-5)">
      <rect id="Retângulo_17" data-name="Retângulo 17" width="23.398" height="4.327" transform="translate(0 5.502)" fill="url(#linear-gradient-5)"/>
    </g>
  </g>
  <g id="Grupo_34" data-name="Grupo 34">
    <g id="Grupo_33" data-name="Grupo 33" clip-path="url(#clip-path-6)">
      <rect id="Retângulo_18" data-name="Retângulo 18" width="15.599" height="4.327" transform="translate(6.907 0.143)" fill="url(#linear-gradient-6)"/>
    </g>
  </g>
  <g id="Grupo_36" data-name="Grupo 36">
    <g id="Grupo_35" data-name="Grupo 35" clip-path="url(#clip-path-7)">
      <rect id="Retângulo_19" data-name="Retângulo 19" width="14.784" height="4.327" transform="translate(25.184 20.824)" fill="url(#linear-gradient-7)"/>
    </g>
  </g>
  <g id="Grupo_38" data-name="Grupo 38">
    <g id="Grupo_37" data-name="Grupo 37" clip-path="url(#clip-path-8)">
      <rect id="Retângulo_20" data-name="Retângulo 20" width="19.065" height="4.327" transform="translate(26.076 26.183)" fill="url(#linear-gradient-8)"/>
    </g>
  </g>
  <g id="Grupo_40" data-name="Grupo 40">
    <g id="Grupo_39" data-name="Grupo 39" clip-path="url(#clip-path-9)">
      <path id="Caminho_44" data-name="Caminho 44" d="M55.992,39.039H52.8l-.764,2.188H50.5l3.065-8.241h1.758l3.065,8.241h-1.62Zm-2.776-1.25h2.36L54.4,34.433Z" fill="#63666a"/>
      <path id="Caminho_45" data-name="Caminho 45" d="M59.091,41.227v-4.12a2.607,2.607,0,0,1,.162-.978,1.493,1.493,0,0,1,.48-.642,2.043,2.043,0,0,1,.781-.353,4.639,4.639,0,0,1,1.064-.11,3.24,3.24,0,0,1,1.1.174,1.675,1.675,0,0,1,.746.5,1.677,1.677,0,0,1,.752-.5,3.328,3.328,0,0,1,1.122-.174,4.575,4.575,0,0,1,1.053.11,2.042,2.042,0,0,1,.781.353,1.5,1.5,0,0,1,.48.642,2.606,2.606,0,0,1,.162.978v4.12h-1.5V37.315a3.287,3.287,0,0,0-.029-.463.679.679,0,0,0-.133-.33.606.606,0,0,0-.318-.2,2.07,2.07,0,0,0-.572-.064,1.961,1.961,0,0,0-.532.058.722.722,0,0,0-.313.174.549.549,0,0,0-.15.289,2.106,2.106,0,0,0-.035.405v4.039h-1.5V37.315a3.245,3.245,0,0,0-.029-.463.658.658,0,0,0-.139-.33.642.642,0,0,0-.318-.2,2.55,2.55,0,0,0-1.133,0,.606.606,0,0,0-.312.2.687.687,0,0,0-.133.33,3.24,3.24,0,0,0-.029.463v3.912Z" fill="#63666a"/>
      <path id="Caminho_46" data-name="Caminho 46" d="M80.965,33.507a.853.853,0,0,1-.2.631,1.356,1.356,0,0,1-1.388,0,1.1,1.1,0,0,1,0-1.256,1.321,1.321,0,0,1,1.388,0,.856.856,0,0,1,.2.625m-1.654,1.7h1.5v6.019h-1.5Z" fill="#63666a"/>
      <path id="Caminho_47" data-name="Caminho 47" d="M73.678,40.07q-.763.023-1.284.023h-.926a3.1,3.1,0,0,1-.671-.058.7.7,0,0,1-.59-.625,4.075,4.075,0,0,1-.047-.683h3.008a1.707,1.707,0,0,0,.428-.046.524.524,0,0,0,.283-.185.89.89,0,0,0,.157-.388,3.687,3.687,0,0,0,.046-.642v-.2a3.021,3.021,0,0,0-.127-.9,1.676,1.676,0,0,0-.434-.712,2.065,2.065,0,0,0-.809-.469,4.055,4.055,0,0,0-1.267-.168,4.241,4.241,0,0,0-1.359.185,1.948,1.948,0,0,0-.856.55,2.074,2.074,0,0,0-.446.9,5.318,5.318,0,0,0-.127,1.227v.648a4.951,4.951,0,0,0,.122,1.152,1.827,1.827,0,0,0,1.266,1.383,4.177,4.177,0,0,0,1.353.185h.977c.158,0,.322,0,.492-.006l.377-.01ZM70.208,36.9a.933.933,0,0,1,.185-.451.717.717,0,0,1,.382-.232,2.593,2.593,0,0,1,.636-.064,2.417,2.417,0,0,1,.6.064.822.822,0,0,1,.382.2.78.78,0,0,1,.2.37,2.366,2.366,0,0,1,.058.567v.266H70.161a4.6,4.6,0,0,1,.047-.723" fill="#63666a"/>
      <path id="Caminho_48" data-name="Caminho 48" d="M78.679,35.2c-.2-.007-.4-.012-.613-.012h-.752a4.375,4.375,0,0,0-1.029.11,2,2,0,0,0-.763.353,1.518,1.518,0,0,0-.474.642,2.6,2.6,0,0,0-.162.978v3.958h1.5V37.511a3.467,3.467,0,0,1,.029-.48.631.631,0,0,1,.145-.336.715.715,0,0,1,.323-.2,1.9,1.9,0,0,1,.578-.069q.185,0,.463.006l.29.008Z" fill="#63666a"/>
      <path id="Caminho_49" data-name="Caminho 49" d="M91.725,35.683a3.451,3.451,0,0,0-2.07-.5q-.579,0-1.064.006-.338,0-.6.011l-.455,1.222c.146,0,.308,0,.486-.006l.538-.011q.272-.006.538-.006h.486a3.855,3.855,0,0,1,.653.046.9.9,0,0,1,.411.167.66.66,0,0,1,.214.33,1.81,1.81,0,0,1,.064.521v.208a2.03,2.03,0,0,0-.6-.225,4.268,4.268,0,0,0-1-.1,2.915,2.915,0,0,0-1.77.435,1.645,1.645,0,0,0-.566,1.395v.254a1.7,1.7,0,0,0,.514,1.331,2.618,2.618,0,0,0,1.753.463h1.885a1.491,1.491,0,0,0,.96-.237,1.076,1.076,0,0,0,.278-.85V37.245a1.83,1.83,0,0,0-.659-1.562m-.8,4.456H89.458a1.275,1.275,0,0,1-.792-.18.674.674,0,0,1-.214-.55v-.22a.674.674,0,0,1,.231-.59,1.686,1.686,0,0,1,.89-.162h.174a3.692,3.692,0,0,1,.613.04.866.866,0,0,1,.359.133.433.433,0,0,1,.168.238,1.344,1.344,0,0,1,.04.353Z" fill="#63666a"/>
      <path id="Caminho_50" data-name="Caminho 50" d="M98.248,38.692a1.352,1.352,0,0,0-.266-.521,1.467,1.467,0,0,0-.532-.387,2.642,2.642,0,0,0-.862-.2l-1.214-.116a1.191,1.191,0,0,1-.619-.168.5.5,0,0,1-.133-.388.406.406,0,0,1,.2-.388,1.585,1.585,0,0,1,.705-.11h.885q.282,0,.665.006l.667.013.454-1.223-1.457-.017c-.393,0-.757-.006-1.087-.006a3.028,3.028,0,0,0-1.891.458,1.557,1.557,0,0,0-.561,1.279v.174a2.023,2.023,0,0,0,.086.6,1.334,1.334,0,0,0,.289.509,1.619,1.619,0,0,0,.521.376,2.182,2.182,0,0,0,.769.185l1.272.1a1.014,1.014,0,0,1,.6.185.547.547,0,0,1,.133.394.481.481,0,0,1-.214.451,1.706,1.706,0,0,1-.792.127q-.532,0-1.2-.006-.546,0-1.037-.013l-.455,1.223c.231.008.471.013.717.017s.487.006.723.006h1.2a3.205,3.205,0,0,0,1.909-.457,1.564,1.564,0,0,0,.613-1.337v-.174a2.357,2.357,0,0,0-.075-.59" fill="#63666a"/>
      <path id="Caminho_51" data-name="Caminho 51" d="M86.294,40.011q-.37.012-.833.018c-.309,0-.594.006-.856.006a3.682,3.682,0,0,1-.677-.052.8.8,0,0,1-.428-.208.9.9,0,0,1-.22-.457,3.983,3.983,0,0,1-.063-.787V37.9a4.312,4.312,0,0,1,.058-.787.859.859,0,0,1,.214-.457.8.8,0,0,1,.423-.209A3.741,3.741,0,0,1,84.6,36.4c.139,0,.33,0,.573.006q.284,0,.644.02l.449-1.206q-1.064-.034-1.7-.035a5.364,5.364,0,0,0-1.348.145,2.009,2.009,0,0,0-.89.469,1.841,1.841,0,0,0-.491.845,4.589,4.589,0,0,0-.15,1.261v.625a4.76,4.76,0,0,0,.144,1.268,1.8,1.8,0,0,0,.486.839,2,2,0,0,0,.89.468,5.39,5.39,0,0,0,1.36.145c.185,0,.417,0,.694-.006q.3,0,.575-.011Z" fill="#63666a"/>
      <path id="Caminho_52" data-name="Caminho 52" d="M76.139,26.937V18.9a5.085,5.085,0,0,1,.316-1.908,2.918,2.918,0,0,1,.937-1.253,3.994,3.994,0,0,1,1.523-.689,9.025,9.025,0,0,1,2.076-.214,6.32,6.32,0,0,1,2.155.338,3.275,3.275,0,0,1,1.456.971,3.267,3.267,0,0,1,1.467-.971,6.494,6.494,0,0,1,2.189-.338,8.919,8.919,0,0,1,2.054.214,4,4,0,0,1,1.523.689,2.925,2.925,0,0,1,.937,1.253,5.091,5.091,0,0,1,.316,1.908v8.038H90.152V19.3a6.306,6.306,0,0,0-.056-.9,1.34,1.34,0,0,0-.259-.644,1.193,1.193,0,0,0-.621-.384A4.065,4.065,0,0,0,88.1,17.25a3.815,3.815,0,0,0-1.038.113,1.407,1.407,0,0,0-.609.339,1.076,1.076,0,0,0-.293.564,4.076,4.076,0,0,0-.068.79v7.88H83.157V19.3a6.306,6.306,0,0,0-.056-.9,1.281,1.281,0,0,0-.271-.644,1.257,1.257,0,0,0-.621-.384,4.988,4.988,0,0,0-2.211,0,1.187,1.187,0,0,0-.609.384,1.335,1.335,0,0,0-.26.644,6.263,6.263,0,0,0-.056.9v7.632Z" fill="#6d2077"/>
      <path id="Caminho_53" data-name="Caminho 53" d="M118.948,11.876a1.663,1.663,0,0,1-.383,1.231,2.645,2.645,0,0,1-2.708,0,1.66,1.66,0,0,1-.384-1.231,1.668,1.668,0,0,1,.384-1.219,2.58,2.58,0,0,1,2.708,0,1.67,1.67,0,0,1,.383,1.219M115.721,15.2h2.933V26.937h-2.933Z" fill="#6d2077"/>
      <path id="Caminho_54" data-name="Caminho 54" d="M141.349,26.937V18.943a5.1,5.1,0,0,1,.316-1.9,2.88,2.88,0,0,1,.97-1.276,4.362,4.362,0,0,1,1.67-.711,11.273,11.273,0,0,1,2.415-.226,6.967,6.967,0,0,1,4.073.937,3.68,3.68,0,0,1,1.275,3.172v7.993h-2.934V19.3a5.267,5.267,0,0,0-.068-.9,1.255,1.255,0,0,0-.3-.644,1.437,1.437,0,0,0-.722-.384,7.086,7.086,0,0,0-2.64,0,1.507,1.507,0,0,0-.733.384,1.212,1.212,0,0,0-.316.644,5.265,5.265,0,0,0-.068.9v7.632Z" fill="#6d2077"/>
      <path id="Caminho_55" data-name="Caminho 55" d="M159.4,14.834a10.539,10.539,0,0,1,2.573.271,3.85,3.85,0,0,1,1.737.915,3.705,3.705,0,0,1,.982,1.727,10.187,10.187,0,0,1,.3,2.71v1.219a10.189,10.189,0,0,1-.3,2.71,3.705,3.705,0,0,1-.982,1.727,3.847,3.847,0,0,1-1.737.914,12.445,12.445,0,0,1-5.168,0,3.846,3.846,0,0,1-1.737-.914,3.705,3.705,0,0,1-.982-1.727,10.189,10.189,0,0,1-.3-2.71V20.457a10.188,10.188,0,0,1,.3-2.71,3.705,3.705,0,0,1,.982-1.727,3.849,3.849,0,0,1,1.737-.915,10.645,10.645,0,0,1,2.595-.271m2.618,5.577a10.122,10.122,0,0,0-.113-1.682,2.086,2.086,0,0,0-.395-.982,1.384,1.384,0,0,0-.79-.452,6.291,6.291,0,0,0-1.32-.113,6.457,6.457,0,0,0-1.331.113,1.389,1.389,0,0,0-.8.452,2.077,2.077,0,0,0-.395.982,10.058,10.058,0,0,0-.113,1.682v1.332a9.845,9.845,0,0,0,.113,1.671,2.063,2.063,0,0,0,.395.971,1.384,1.384,0,0,0,.8.452,6.437,6.437,0,0,0,1.331.113,6.272,6.272,0,0,0,1.32-.113,1.379,1.379,0,0,0,.79-.452,2.072,2.072,0,0,0,.395-.971,9.907,9.907,0,0,0,.113-1.671Z" fill="#6d2077"/>
      <path id="Caminho_56" data-name="Caminho 56" d="M103.87,16.121a6.735,6.735,0,0,0-4.039-.971q-1.129,0-2.076.011c-.441.006-.829.013-1.167.021L95.7,17.566q.428,0,.948-.011l1.049-.023q.53-.011,1.049-.011H99.7a7.5,7.5,0,0,1,1.275.09,1.745,1.745,0,0,1,.8.328,1.285,1.285,0,0,1,.418.643,3.546,3.546,0,0,1,.124,1.016V20a3.966,3.966,0,0,0-1.162-.44,8.349,8.349,0,0,0-1.952-.192,5.685,5.685,0,0,0-3.453.847A3.21,3.21,0,0,0,94.64,22.94v.5a3.311,3.311,0,0,0,1,2.6,5.1,5.1,0,0,0,3.419.9h3.678a2.912,2.912,0,0,0,1.873-.463,2.1,2.1,0,0,0,.542-1.66V19.169a3.572,3.572,0,0,0-1.286-3.048m-1.557,8.693H99.447a2.489,2.489,0,0,1-1.546-.35,1.32,1.32,0,0,1-.418-1.072v-.429a1.313,1.313,0,0,1,.451-1.152,3.294,3.294,0,0,1,1.738-.316h.338a7.253,7.253,0,0,1,1.2.079,1.689,1.689,0,0,1,.7.26.842.842,0,0,1,.327.463,2.6,2.6,0,0,1,.079.689Z" fill="#6d2077"/>
      <path id="Caminho_57" data-name="Caminho 57" d="M113.023,17.577c.2,0,.386.01.566.016l.9-2.421q-.587-.022-1.2-.023h-1.467a8.514,8.514,0,0,0-2.008.215,3.892,3.892,0,0,0-1.489.689,2.957,2.957,0,0,0-.925,1.253,5.085,5.085,0,0,0-.316,1.908v7.722h2.933V19.689a6.7,6.7,0,0,1,.056-.937,1.239,1.239,0,0,1,.282-.655,1.4,1.4,0,0,1,.632-.4,3.71,3.71,0,0,1,1.129-.135q.361,0,.9.011" fill="#6d2077"/>
      <path id="Caminho_58" data-name="Caminho 58" d="M124.531,24.442a1.079,1.079,0,0,1-.609-.316,1.328,1.328,0,0,1-.293-.666,6.275,6.275,0,0,1-.079-1.106V17.611h3.321l.9-2.416h-4.22V11.989l-2.933.474V22.511a9.516,9.516,0,0,0,.2,2.145,2.7,2.7,0,0,0,.734,1.366,2.967,2.967,0,0,0,1.444.711,11.063,11.063,0,0,0,2.336.2h1.4l.9-2.416h-2.1a5.235,5.235,0,0,1-1-.079" fill="#6d2077"/>
      <path id="Caminho_59" data-name="Caminho 59" d="M138.113,16.121a6.735,6.735,0,0,0-4.039-.971q-1.129,0-2.076.011c-.441.006-.829.013-1.167.021l-.887,2.383q.428,0,.948-.011l1.049-.023q.53-.011,1.049-.011h.948a7.5,7.5,0,0,1,1.275.09,1.744,1.744,0,0,1,.8.328,1.285,1.285,0,0,1,.418.643,3.546,3.546,0,0,1,.124,1.016V20a3.966,3.966,0,0,0-1.162-.44,8.349,8.349,0,0,0-1.952-.192,5.685,5.685,0,0,0-3.453.847,3.21,3.21,0,0,0-1.106,2.721v.5a3.311,3.311,0,0,0,1,2.6,5.1,5.1,0,0,0,3.419.9h3.678a2.912,2.912,0,0,0,1.873-.463,2.1,2.1,0,0,0,.542-1.66V19.169a3.572,3.572,0,0,0-1.286-3.048m-1.557,8.693H133.69a2.489,2.489,0,0,1-1.546-.35,1.32,1.32,0,0,1-.418-1.072v-.429a1.313,1.313,0,0,1,.451-1.152,3.294,3.294,0,0,1,1.738-.316h.338a7.253,7.253,0,0,1,1.2.079,1.687,1.687,0,0,1,.7.26.842.842,0,0,1,.327.463,2.6,2.6,0,0,1,.079.689Z" fill="#6d2077"/>
      <path id="Caminho_60" data-name="Caminho 60" d="M72.9,16.121a6.735,6.735,0,0,0-4.039-.971q-1.129,0-2.076.011c-.441.006-.829.013-1.167.021l-.887,2.383q.428,0,.948-.011l1.049-.023q.53-.011,1.049-.011h.948a7.5,7.5,0,0,1,1.275.09,1.745,1.745,0,0,1,.8.328,1.287,1.287,0,0,1,.418.643,3.546,3.546,0,0,1,.124,1.016V20a3.962,3.962,0,0,0-1.162-.44,8.349,8.349,0,0,0-1.952-.192,5.685,5.685,0,0,0-3.453.847,3.21,3.21,0,0,0-1.106,2.721v.5a3.311,3.311,0,0,0,1,2.6,5.1,5.1,0,0,0,3.419.9h3.678a2.914,2.914,0,0,0,1.873-.463,2.1,2.1,0,0,0,.541-1.66V19.169A3.572,3.572,0,0,0,72.9,16.121m-1.557,8.693H68.48a2.489,2.489,0,0,1-1.546-.35,1.32,1.32,0,0,1-.417-1.072v-.429a1.312,1.312,0,0,1,.451-1.152,3.293,3.293,0,0,1,1.738-.316h.338a7.253,7.253,0,0,1,1.2.079,1.689,1.689,0,0,1,.7.26.842.842,0,0,1,.327.463,2.6,2.6,0,0,1,.079.689Z" fill="#6d2077"/>
      <path id="Caminho_61" data-name="Caminho 61" d="M62.119,20.411a3.18,3.18,0,0,0-1.873-2.179,8.045,8.045,0,0,0-1.873-.553l-2.933-.5a4.8,4.8,0,0,1-.993-.237,1.485,1.485,0,0,1-.587-.373,1.155,1.155,0,0,1-.271-.542,3.86,3.86,0,0,1-.068-.79,2.815,2.815,0,0,1,.124-.9,1.116,1.116,0,0,1,.44-.576,2.157,2.157,0,0,1,.858-.3,8.825,8.825,0,0,1,1.4-.09h2.178q1,0,2.384.033l.945-2.539q-.971-.022-1.693-.034t-1.331-.011H56.5a11.055,11.055,0,0,0-2.809.3,5.034,5.034,0,0,0-1.839.858,3.189,3.189,0,0,0-1.015,1.366,5.007,5.007,0,0,0-.316,1.829v.406a7.254,7.254,0,0,0,.169,1.649,2.925,2.925,0,0,0,.621,1.253,3.53,3.53,0,0,0,1.23.892,7.876,7.876,0,0,0,2,.565l2.73.451a6.086,6.086,0,0,1,1.049.26,1.518,1.518,0,0,1,.609.384,1.193,1.193,0,0,1,.282.587,4.541,4.541,0,0,1,.068.847,3.1,3.1,0,0,1-.124.96,1.12,1.12,0,0,1-.474.6,2.414,2.414,0,0,1-.948.316,10.71,10.71,0,0,1-1.546.09H53.916q-.621,0-1.331-.011-.52-.008-1.142-.023l-.945,2.54q2.143.045,3.464.045h2.178a13.466,13.466,0,0,0,2.945-.271,4.8,4.8,0,0,0,1.907-.835,3.1,3.1,0,0,0,1.027-1.4,5.8,5.8,0,0,0,.3-1.987v-.361a6.55,6.55,0,0,0-.2-1.716" fill="#6d2077"/>
      <path id="Caminho_62" data-name="Caminho 62" d="M54.9.143V5.5h-1V3.2H51.5V5.5h-1V.143h1v2.19H53.9V.143Z" fill="#6d2077"/>
      <path id="Caminho_63" data-name="Caminho 63" d="M57.925,5.637a3.761,3.761,0,0,1-1.162-.151,1.6,1.6,0,0,1-.722-.455,1.688,1.688,0,0,1-.369-.768,5.074,5.074,0,0,1-.1-1.08v-.73a5.091,5.091,0,0,1,.1-1.054A1.708,1.708,0,0,1,56.03.632a1.644,1.644,0,0,1,.718-.47A3.58,3.58,0,0,1,57.925,0a3.8,3.8,0,0,1,1.166.151,1.6,1.6,0,0,1,.726.455,1.694,1.694,0,0,1,.369.768,5.093,5.093,0,0,1,.1,1.08v.73a5.111,5.111,0,0,1-.1,1.054A1.709,1.709,0,0,1,59.828,5a1.642,1.642,0,0,1-.722.47,3.607,3.607,0,0,1-1.181.162m0-.85a2.973,2.973,0,0,0,.662-.06.726.726,0,0,0,.4-.233,1.027,1.027,0,0,0,.2-.493,5.023,5.023,0,0,0,.056-.839V2.476a4.965,4.965,0,0,0-.056-.832,1.055,1.055,0,0,0-.2-.5.722.722,0,0,0-.4-.237,3.681,3.681,0,0,0-1.324,0,.728.728,0,0,0-.4.234,1,1,0,0,0-.2.493,5.355,5.355,0,0,0-.053.839v.685a5.293,5.293,0,0,0,.053.832,1.026,1.026,0,0,0,.2.5.716.716,0,0,0,.4.237,2.971,2.971,0,0,0,.662.06" fill="#6d2077"/>
      <path id="Caminho_64" data-name="Caminho 64" d="M66.276,3.56V5.5h-.993V.143H67.36a2.314,2.314,0,0,1,1.489.38A1.436,1.436,0,0,1,69.3,1.686v.331a1.408,1.408,0,0,1-.466,1.17,2.358,2.358,0,0,1-1.474.373ZM68.3,1.8a1.4,1.4,0,0,0-.049-.406.466.466,0,0,0-.165-.245.72.72,0,0,0-.3-.121A2.588,2.588,0,0,0,67.33.993H66.276V2.71H67.33a2.557,2.557,0,0,0,.455-.034.716.716,0,0,0,.3-.12.466.466,0,0,0,.165-.245A1.4,1.4,0,0,0,68.3,1.9Z" fill="#6d2077"/>
      <rect id="Retângulo_21" data-name="Retângulo 21" width="1" height="5.359" transform="translate(69.883 0.143)" fill="#6d2077"/>
      <path id="Caminho_65" data-name="Caminho 65" d="M79.056,4.079H76.98l-.5,1.423h-1L77.477.143H78.62L80.613,5.5H79.56Zm-1.805-.813h1.534l-.767-2.183Z" fill="#6d2077"/>
      <path id="Caminho_66" data-name="Caminho 66" d="M76.114.143H71.727l-.322.866h1.835V5.5h1V1.009h1.551Z" fill="#6d2077"/>
      <path id="Caminho_67" data-name="Caminho 67" d="M84.751,4.636H82.126V.143h-1V5.5h3.3Z" fill="#6d2077"/>
      <path id="Caminho_68" data-name="Caminho 68" d="M64.657,3.326a1.06,1.06,0,0,0-.624-.726,2.7,2.7,0,0,0-.624-.184l-.978-.165a1.589,1.589,0,0,1-.331-.079.49.49,0,0,1-.2-.124.385.385,0,0,1-.09-.181,1.3,1.3,0,0,1-.022-.263.936.936,0,0,1,.041-.3.371.371,0,0,1,.147-.192.721.721,0,0,1,.286-.1,2.965,2.965,0,0,1,.466-.03h.726q.332,0,.795.011l.315-.846L64,.132q-.241,0-.444,0h-.775a3.673,3.673,0,0,0-.936.1,1.673,1.673,0,0,0-.613.286A1.062,1.062,0,0,0,60.9.971a1.667,1.667,0,0,0-.105.61v.135a2.425,2.425,0,0,0,.056.55.98.98,0,0,0,.207.418,1.176,1.176,0,0,0,.41.3,2.622,2.622,0,0,0,.666.188l.91.151a2.049,2.049,0,0,1,.35.087.51.51,0,0,1,.2.128.4.4,0,0,1,.094.2,1.535,1.535,0,0,1,.022.282,1.04,1.04,0,0,1-.041.32.373.373,0,0,1-.158.2.8.8,0,0,1-.316.105,3.572,3.572,0,0,1-.515.03h-.756c-.138,0-.286,0-.444,0L61.1,4.655l-.315.847q.715.015,1.155.015h.726a4.492,4.492,0,0,0,.982-.09,1.6,1.6,0,0,0,.635-.278,1.031,1.031,0,0,0,.342-.467,1.939,1.939,0,0,0,.1-.662V3.9a2.182,2.182,0,0,0-.068-.572" fill="#6d2077"/>
    </g>
  </g>
</svg>
